<?xml version="1.0" encoding="us-ascii" standalone="no"?><svg xmlns="http://www.w3.org/2000/svg" xmlns:xlink="http://www.w3.org/1999/xlink" contentStyleType="text/css" height="228px" preserveAspectRatio="none" style="width:4541px;height:228px;background:#FFFFFF;" version="1.1" viewBox="0 0 4541 228" width="4541px" zoomAndPan="magnify"><defs/><g><!--cluster nodeGateway--><g id="cluster_nodeGateway"><polygon fill="none" points="1451,103.84,1461,93.84,1636,93.84,1636,201.84,1626,211.84,1451,211.84,1451,103.84" style="stroke:#181818;stroke-width:1.0;"/><line style="stroke:#181818;stroke-width:1.0;" x1="1626" x2="1636" y1="103.84" y2="93.84"/><line style="stroke:#181818;stroke-width:1.0;" x1="1451" x2="1626" y1="103.84" y2="103.84"/><line style="stroke:#181818;stroke-width:1.0;" x1="1626" x2="1626" y1="103.84" y2="211.84"/><text fill="#000000" font-family="sans-serif" font-size="14" font-weight="bold" lengthAdjust="spacing" textLength="109" x="1485" y="119.8351">nodeGateway</text></g><!--cluster nodeteammates_common_util_Logger_Provider--><g id="cluster_nodeteammates_common_util_Logger_Provider"><polygon fill="none" points="16,103.84,26,93.84,461,93.84,461,201.84,451,211.84,16,211.84,16,103.84" style="stroke:#181818;stroke-width:1.0;"/><line style="stroke:#181818;stroke-width:1.0;" x1="451" x2="461" y1="103.84" y2="93.84"/><line style="stroke:#181818;stroke-width:1.0;" x1="16" x2="451" y1="103.84" y2="103.84"/><line style="stroke:#181818;stroke-width:1.0;" x1="451" x2="451" y1="103.84" y2="211.84"/><text fill="#000000" font-family="sans-serif" font-size="14" font-weight="bold" lengthAdjust="spacing" textLength="369" x="50" y="119.8351">nodeteammates_common_util_Logger_Provider</text></g><!--cluster nodeteammates_ui_servlets_DevServerLoginServlet--><g id="cluster_nodeteammates_ui_servlets_DevServerLoginServlet"><polygon fill="none" points="4040,111.84,4050,101.84,4524,101.84,4524,193.84,4514,203.84,4040,203.84,4040,111.84" style="stroke:#181818;stroke-width:1.0;"/><line style="stroke:#181818;stroke-width:1.0;" x1="4514" x2="4524" y1="111.84" y2="101.84"/><line style="stroke:#181818;stroke-width:1.0;" x1="4040" x2="4514" y1="111.84" y2="111.84"/><line style="stroke:#181818;stroke-width:1.0;" x1="4514" x2="4514" y1="111.84" y2="203.84"/><text fill="#000000" font-family="sans-serif" font-size="14" font-weight="bold" lengthAdjust="spacing" textLength="408" x="4074" y="127.8351">nodeteammates_ui_servlets_DevServerLoginServlet</text></g><!--cluster nodeteammates_ui_servlets_HealthCheckServlet--><g id="cluster_nodeteammates_ui_servlets_HealthCheckServlet"><polygon fill="none" points="954,103.84,964,93.84,1411,93.84,1411,201.84,1401,211.84,954,211.84,954,103.84" style="stroke:#181818;stroke-width:1.0;"/><line style="stroke:#181818;stroke-width:1.0;" x1="1401" x2="1411" y1="103.84" y2="93.84"/><line style="stroke:#181818;stroke-width:1.0;" x1="954" x2="1401" y1="103.84" y2="103.84"/><line style="stroke:#181818;stroke-width:1.0;" x1="1401" x2="1401" y1="103.84" y2="211.84"/><text fill="#000000" font-family="sans-serif" font-size="14" font-weight="bold" lengthAdjust="spacing" textLength="381" x="988" y="119.8351">nodeteammates_ui_servlets_HealthCheckServlet</text></g><!--cluster nodeteammates_ui_servlets_LegacyUrlMapper--><g id="cluster_nodeteammates_ui_servlets_LegacyUrlMapper"><polygon fill="none" points="1676,103.84,1686,93.84,2115,93.84,2115,201.84,2105,211.84,1676,211.84,1676,103.84" style="stroke:#181818;stroke-width:1.0;"/><line style="stroke:#181818;stroke-width:1.0;" x1="2105" x2="2115" y1="103.84" y2="93.84"/><line style="stroke:#181818;stroke-width:1.0;" x1="1676" x2="2105" y1="103.84" y2="103.84"/><line style="stroke:#181818;stroke-width:1.0;" x1="2105" x2="2105" y1="103.84" y2="211.84"/><text fill="#000000" font-family="sans-serif" font-size="14" font-weight="bold" lengthAdjust="spacing" textLength="363" x="1710" y="119.8351">nodeteammates_ui_servlets_LegacyUrlMapper</text></g><!--cluster nodeteammates_ui_servlets_LoginServlet--><g id="cluster_nodeteammates_ui_servlets_LoginServlet"><polygon fill="none" points="2155,103.84,2165,93.84,2556,93.84,2556,201.84,2546,211.84,2155,211.84,2155,103.84" style="stroke:#181818;stroke-width:1.0;"/><line style="stroke:#181818;stroke-width:1.0;" x1="2546" x2="2556" y1="103.84" y2="93.84"/><line style="stroke:#181818;stroke-width:1.0;" x1="2155" x2="2546" y1="103.84" y2="103.84"/><line style="stroke:#181818;stroke-width:1.0;" x1="2546" x2="2546" y1="103.84" y2="211.84"/><text fill="#000000" font-family="sans-serif" font-size="14" font-weight="bold" lengthAdjust="spacing" textLength="325" x="2189" y="119.8351">nodeteammates_ui_servlets_LoginServlet</text></g><!--cluster nodeteammates_ui_servlets_LogoutServlet--><g id="cluster_nodeteammates_ui_servlets_LogoutServlet"><polygon fill="none" points="501,103.84,511,93.84,914,93.84,914,201.84,904,211.84,501,211.84,501,103.84" style="stroke:#181818;stroke-width:1.0;"/><line style="stroke:#181818;stroke-width:1.0;" x1="904" x2="914" y1="103.84" y2="93.84"/><line style="stroke:#181818;stroke-width:1.0;" x1="501" x2="904" y1="103.84" y2="103.84"/><line style="stroke:#181818;stroke-width:1.0;" x1="904" x2="904" y1="103.84" y2="211.84"/><text fill="#000000" font-family="sans-serif" font-size="14" font-weight="bold" lengthAdjust="spacing" textLength="337" x="535" y="119.8351">nodeteammates_ui_servlets_LogoutServlet</text></g><!--cluster nodeteammates_ui_servlets_OAuth2CallbackServlet--><g id="cluster_nodeteammates_ui_servlets_OAuth2CallbackServlet"><polygon fill="none" points="2596,103.84,2606,93.84,3078,93.84,3078,201.84,3068,211.84,2596,211.84,2596,103.84" style="stroke:#181818;stroke-width:1.0;"/><line style="stroke:#181818;stroke-width:1.0;" x1="3068" x2="3078" y1="103.84" y2="93.84"/><line style="stroke:#181818;stroke-width:1.0;" x1="2596" x2="3068" y1="103.84" y2="103.84"/><line style="stroke:#181818;stroke-width:1.0;" x1="3068" x2="3068" y1="103.84" y2="211.84"/><text fill="#000000" font-family="sans-serif" font-size="14" font-weight="bold" lengthAdjust="spacing" textLength="406" x="2630" y="119.8351">nodeteammates_ui_servlets_OAuth2CallbackServlet</text></g><!--cluster nodeteammates_ui_servlets_WebApiServlet--><g id="cluster_nodeteammates_ui_servlets_WebApiServlet"><polygon fill="none" points="3118,103.84,3128,93.84,3536,93.84,3536,201.84,3526,211.84,3118,211.84,3118,103.84" style="stroke:#181818;stroke-width:1.0;"/><line style="stroke:#181818;stroke-width:1.0;" x1="3526" x2="3536" y1="103.84" y2="93.84"/><line style="stroke:#181818;stroke-width:1.0;" x1="3118" x2="3526" y1="103.84" y2="103.84"/><line style="stroke:#181818;stroke-width:1.0;" x1="3526" x2="3526" y1="103.84" y2="211.84"/><text fill="#000000" font-family="sans-serif" font-size="14" font-weight="bold" lengthAdjust="spacing" textLength="342" x="3152" y="119.8351">nodeteammates_ui_servlets_WebApiServlet</text></g><!--cluster nodeteammates_ui_servlets_WebPageServlet--><g id="cluster_nodeteammates_ui_servlets_WebPageServlet"><polygon fill="none" points="3576,103.84,3586,93.84,4008,93.84,4008,201.84,3998,211.84,3576,211.84,3576,103.84" style="stroke:#181818;stroke-width:1.0;"/><line style="stroke:#181818;stroke-width:1.0;" x1="3998" x2="4008" y1="103.84" y2="93.84"/><line style="stroke:#181818;stroke-width:1.0;" x1="3576" x2="3998" y1="103.84" y2="103.84"/><line style="stroke:#181818;stroke-width:1.0;" x1="3998" x2="3998" y1="103.84" y2="211.84"/><text fill="#000000" font-family="sans-serif" font-size="14" font-weight="bold" lengthAdjust="spacing" textLength="356" x="3610" y="119.8351">nodeteammates_ui_servlets_WebPageServlet</text></g><!--entity Gateway--><g id="elem_Gateway"><a href="teammates-teammates-psr.system#_4j9M4I1kEe-zl9KG9TPGxQ" target="_top" title="teammates-teammates-psr.system#_4j9M4I1kEe-zl9KG9TPGxQ" xlink:actuate="onRequest" xlink:href="teammates-teammates-psr.system#_4j9M4I1kEe-zl9KG9TPGxQ" xlink:show="new" xlink:title="teammates-teammates-psr.system#_4j9M4I1kEe-zl9KG9TPGxQ" xlink:type="simple"><rect fill="#F1F1F1" height="46.2969" rx="2.5" ry="2.5" style="stroke:#181818;stroke-width:0.5;" width="99" x="1512.5" y="141.84"/><rect fill="#F1F1F1" height="10" style="stroke:#181818;stroke-width:0.5;" width="15" x="1591.5" y="146.84"/><rect fill="#F1F1F1" height="2" style="stroke:#181818;stroke-width:0.5;" width="4" x="1589.5" y="148.84"/><rect fill="#F1F1F1" height="2" style="stroke:#181818;stroke-width:0.5;" width="4" x="1589.5" y="152.84"/><text fill="#000000" font-family="sans-serif" font-size="14" lengthAdjust="spacing" textLength="59" x="1527.5" y="174.8351">Gateway</text></a></g><!--entity teammates_common_util_Logger_Provider--><g id="elem_teammates_common_util_Logger_Provider"><a href="teammates-teammates-psr.system#_4j9M4I1kEe-zl9KG9TPGxQ" target="_top" title="teammates-teammates-psr.system#_4j9M4I1kEe-zl9KG9TPGxQ" xlink:actuate="onRequest" xlink:href="teammates-teammates-psr.system#_4j9M4I1kEe-zl9KG9TPGxQ" xlink:show="new" xlink:title="teammates-teammates-psr.system#_4j9M4I1kEe-zl9KG9TPGxQ" xlink:type="simple"><rect fill="#F1F1F1" height="46.2969" rx="2.5" ry="2.5" style="stroke:#181818;stroke-width:0.5;" width="331" x="105.5" y="141.84"/><rect fill="#F1F1F1" height="10" style="stroke:#181818;stroke-width:0.5;" width="15" x="416.5" y="146.84"/><rect fill="#F1F1F1" height="2" style="stroke:#181818;stroke-width:0.5;" width="4" x="414.5" y="148.84"/><rect fill="#F1F1F1" height="2" style="stroke:#181818;stroke-width:0.5;" width="4" x="414.5" y="152.84"/><text fill="#000000" font-family="sans-serif" font-size="14" lengthAdjust="spacing" textLength="291" x="120.5" y="174.8351">teammates_common_util_Logger_Provider</text></a></g><!--entity teammates_ui_servlets_DevServerLoginServlet--><g id="elem_teammates_ui_servlets_DevServerLoginServlet"><a href="teammates-teammates-psr.system#_4j9M4I1kEe-zl9KG9TPGxQ" target="_top" title="teammates-teammates-psr.system#_4j9M4I1kEe-zl9KG9TPGxQ" xlink:actuate="onRequest" xlink:href="teammates-teammates-psr.system#_4j9M4I1kEe-zl9KG9TPGxQ" xlink:show="new" xlink:title="teammates-teammates-psr.system#_4j9M4I1kEe-zl9KG9TPGxQ" xlink:type="simple"><rect fill="#F1F1F1" height="46.2969" rx="2.5" ry="2.5" style="stroke:#181818;stroke-width:0.5;" width="360" x="4102" y="141.84"/><rect fill="#F1F1F1" height="10" style="stroke:#181818;stroke-width:0.5;" width="15" x="4442" y="146.84"/><rect fill="#F1F1F1" height="2" style="stroke:#181818;stroke-width:0.5;" width="4" x="4440" y="148.84"/><rect fill="#F1F1F1" height="2" style="stroke:#181818;stroke-width:0.5;" width="4" x="4440" y="152.84"/><text fill="#000000" font-family="sans-serif" font-size="14" lengthAdjust="spacing" textLength="320" x="4117" y="174.8351">teammates_ui_servlets_DevServerLoginServlet</text></a></g><!--entity teammates_ui_servlets_HealthCheckServlet--><g id="elem_teammates_ui_servlets_HealthCheckServlet"><a href="teammates-teammates-psr.system#_4j9M4I1kEe-zl9KG9TPGxQ" target="_top" title="teammates-teammates-psr.system#_4j9M4I1kEe-zl9KG9TPGxQ" xlink:actuate="onRequest" xlink:href="teammates-teammates-psr.system#_4j9M4I1kEe-zl9KG9TPGxQ" xlink:show="new" xlink:title="teammates-teammates-psr.system#_4j9M4I1kEe-zl9KG9TPGxQ" xlink:type="simple"><rect fill="#F1F1F1" height="46.2969" rx="2.5" ry="2.5" style="stroke:#181818;stroke-width:0.5;" width="340" x="1047" y="141.84"/><rect fill="#F1F1F1" height="10" style="stroke:#181818;stroke-width:0.5;" width="15" x="1367" y="146.84"/><rect fill="#F1F1F1" height="2" style="stroke:#181818;stroke-width:0.5;" width="4" x="1365" y="148.84"/><rect fill="#F1F1F1" height="2" style="stroke:#181818;stroke-width:0.5;" width="4" x="1365" y="152.84"/><text fill="#000000" font-family="sans-serif" font-size="14" lengthAdjust="spacing" textLength="300" x="1062" y="174.8351">teammates_ui_servlets_HealthCheckServlet</text></a></g><!--entity teammates_ui_servlets_LegacyUrlMapper--><g id="elem_teammates_ui_servlets_LegacyUrlMapper"><a href="teammates-teammates-psr.system#_4j9M4I1kEe-zl9KG9TPGxQ" target="_top" title="teammates-teammates-psr.system#_4j9M4I1kEe-zl9KG9TPGxQ" xlink:actuate="onRequest" xlink:href="teammates-teammates-psr.system#_4j9M4I1kEe-zl9KG9TPGxQ" xlink:show="new" xlink:title="teammates-teammates-psr.system#_4j9M4I1kEe-zl9KG9TPGxQ" xlink:type="simple"><rect fill="#F1F1F1" height="46.2969" rx="2.5" ry="2.5" style="stroke:#181818;stroke-width:0.5;" width="323" x="1743.5" y="141.84"/><rect fill="#F1F1F1" height="10" style="stroke:#181818;stroke-width:0.5;" width="15" x="2046.5" y="146.84"/><rect fill="#F1F1F1" height="2" style="stroke:#181818;stroke-width:0.5;" width="4" x="2044.5" y="148.84"/><rect fill="#F1F1F1" height="2" style="stroke:#181818;stroke-width:0.5;" width="4" x="2044.5" y="152.84"/><text fill="#000000" font-family="sans-serif" font-size="14" lengthAdjust="spacing" textLength="283" x="1758.5" y="174.8351">teammates_ui_servlets_LegacyUrlMapper</text></a></g><!--entity teammates_ui_servlets_LoginServlet--><g id="elem_teammates_ui_servlets_LoginServlet"><a href="teammates-teammates-psr.system#_4j9M4I1kEe-zl9KG9TPGxQ" target="_top" title="teammates-teammates-psr.system#_4j9M4I1kEe-zl9KG9TPGxQ" xlink:actuate="onRequest" xlink:href="teammates-teammates-psr.system#_4j9M4I1kEe-zl9KG9TPGxQ" xlink:show="new" xlink:title="teammates-teammates-psr.system#_4j9M4I1kEe-zl9KG9TPGxQ" xlink:type="simple"><rect fill="#F1F1F1" height="46.2969" rx="2.5" ry="2.5" style="stroke:#181818;stroke-width:0.5;" width="289" x="2220.5" y="141.84"/><rect fill="#F1F1F1" height="10" style="stroke:#181818;stroke-width:0.5;" width="15" x="2489.5" y="146.84"/><rect fill="#F1F1F1" height="2" style="stroke:#181818;stroke-width:0.5;" width="4" x="2487.5" y="148.84"/><rect fill="#F1F1F1" height="2" style="stroke:#181818;stroke-width:0.5;" width="4" x="2487.5" y="152.84"/><text fill="#000000" font-family="sans-serif" font-size="14" lengthAdjust="spacing" textLength="249" x="2235.5" y="174.8351">teammates_ui_servlets_LoginServlet</text></a></g><!--entity teammates_ui_servlets_LogoutServlet--><g id="elem_teammates_ui_servlets_LogoutServlet"><a href="teammates-teammates-psr.system#_4j9M4I1kEe-zl9KG9TPGxQ" target="_top" title="teammates-teammates-psr.system#_4j9M4I1kEe-zl9KG9TPGxQ" xlink:actuate="onRequest" xlink:href="teammates-teammates-psr.system#_4j9M4I1kEe-zl9KG9TPGxQ" xlink:show="new" xlink:title="teammates-teammates-psr.system#_4j9M4I1kEe-zl9KG9TPGxQ" xlink:type="simple"><rect fill="#F1F1F1" height="46.2969" rx="2.5" ry="2.5" style="stroke:#181818;stroke-width:0.5;" width="300" x="578" y="141.84"/><rect fill="#F1F1F1" height="10" style="stroke:#181818;stroke-width:0.5;" width="15" x="858" y="146.84"/><rect fill="#F1F1F1" height="2" style="stroke:#181818;stroke-width:0.5;" width="4" x="856" y="148.84"/><rect fill="#F1F1F1" height="2" style="stroke:#181818;stroke-width:0.5;" width="4" x="856" y="152.84"/><text fill="#000000" font-family="sans-serif" font-size="14" lengthAdjust="spacing" textLength="260" x="593" y="174.8351">teammates_ui_servlets_LogoutServlet</text></a></g><!--entity teammates_ui_servlets_OAuth2CallbackServlet--><g id="elem_teammates_ui_servlets_OAuth2CallbackServlet"><a href="teammates-teammates-psr.system#_4j9M4I1kEe-zl9KG9TPGxQ" target="_top" title="teammates-teammates-psr.system#_4j9M4I1kEe-zl9KG9TPGxQ" xlink:actuate="onRequest" xlink:href="teammates-teammates-psr.system#_4j9M4I1kEe-zl9KG9TPGxQ" xlink:show="new" xlink:title="teammates-teammates-psr.system#_4j9M4I1kEe-zl9KG9TPGxQ" xlink:type="simple"><rect fill="#F1F1F1" height="46.2969" rx="2.5" ry="2.5" style="stroke:#181818;stroke-width:0.5;" width="361" x="2666.5" y="141.84"/><rect fill="#F1F1F1" height="10" style="stroke:#181818;stroke-width:0.5;" width="15" x="3007.5" y="146.84"/><rect fill="#F1F1F1" height="2" style="stroke:#181818;stroke-width:0.5;" width="4" x="3005.5" y="148.84"/><rect fill="#F1F1F1" height="2" style="stroke:#181818;stroke-width:0.5;" width="4" x="3005.5" y="152.84"/><text fill="#000000" font-family="sans-serif" font-size="14" lengthAdjust="spacing" textLength="321" x="2681.5" y="174.8351">teammates_ui_servlets_OAuth2CallbackServlet</text></a></g><!--entity teammates_ui_servlets_WebApiServlet--><g id="elem_teammates_ui_servlets_WebApiServlet"><a href="teammates-teammates-psr.system#_4j9M4I1kEe-zl9KG9TPGxQ" target="_top" title="teammates-teammates-psr.system#_4j9M4I1kEe-zl9KG9TPGxQ" xlink:actuate="onRequest" xlink:href="teammates-teammates-psr.system#_4j9M4I1kEe-zl9KG9TPGxQ" xlink:show="new" xlink:title="teammates-teammates-psr.system#_4j9M4I1kEe-zl9KG9TPGxQ" xlink:type="simple"><rect fill="#F1F1F1" height="46.2969" rx="2.5" ry="2.5" style="stroke:#181818;stroke-width:0.5;" width="304" x="3184" y="141.84"/><rect fill="#F1F1F1" height="10" style="stroke:#181818;stroke-width:0.5;" width="15" x="3468" y="146.84"/><rect fill="#F1F1F1" height="2" style="stroke:#181818;stroke-width:0.5;" width="4" x="3466" y="148.84"/><rect fill="#F1F1F1" height="2" style="stroke:#181818;stroke-width:0.5;" width="4" x="3466" y="152.84"/><text fill="#000000" font-family="sans-serif" font-size="14" lengthAdjust="spacing" textLength="264" x="3199" y="174.8351">teammates_ui_servlets_WebApiServlet</text></a></g><!--entity teammates_ui_servlets_WebPageServlet--><g id="elem_teammates_ui_servlets_WebPageServlet"><a href="teammates-teammates-psr.system#_4j9M4I1kEe-zl9KG9TPGxQ" target="_top" title="teammates-teammates-psr.system#_4j9M4I1kEe-zl9KG9TPGxQ" xlink:actuate="onRequest" xlink:href="teammates-teammates-psr.system#_4j9M4I1kEe-zl9KG9TPGxQ" xlink:show="new" xlink:title="teammates-teammates-psr.system#_4j9M4I1kEe-zl9KG9TPGxQ" xlink:type="simple"><rect fill="#F1F1F1" height="46.2969" rx="2.5" ry="2.5" style="stroke:#181818;stroke-width:0.5;" width="318" x="3642" y="141.84"/><rect fill="#F1F1F1" height="10" style="stroke:#181818;stroke-width:0.5;" width="15" x="3940" y="146.84"/><rect fill="#F1F1F1" height="2" style="stroke:#181818;stroke-width:0.5;" width="4" x="3938" y="148.84"/><rect fill="#F1F1F1" height="2" style="stroke:#181818;stroke-width:0.5;" width="4" x="3938" y="152.84"/><text fill="#000000" font-family="sans-serif" font-size="14" lengthAdjust="spacing" textLength="278" x="3657" y="174.8351">teammates_ui_servlets_WebPageServlet</text></a></g><!--link nodeteammates_common_util_Logger_Provider to nodeteammates_ui_servlets_LogoutServlet--><g id="link_nodeteammates_common_util_Logger_Provider_nodeteammates_ui_servlets_LogoutServlet"><path d="M75.096,93.4215 C75.1511,93.2264 75.2068,93.0313 75.2629,92.8364 C75.3752,92.4466 75.4893,92.0573 75.6053,91.6685 C75.8374,90.8911 76.0771,90.116 76.3247,89.3437 C76.8198,87.799 77.3464,86.2657 77.9063,84.7478 C79.0261,81.7118 80.2789,78.7371 81.6794,75.8561 C87.2813,64.3319 95.245,54.305 106.5,47.84 C169.9,11.43 369.37,16.66 435.5,47.84 C450.0275,54.69 463.1106,64.9188 474.613,76.527 C480.3641,82.3312 485.7201,88.4802 490.6638,94.7242 C493.1357,97.8462 495.5045,100.9919 497.7681,104.1302 C498.334,104.9148 498.8934,105.6989 499.4461,106.482 C499.7224,106.8736 499.9971,107.2649 500.2702,107.6559 C500.4067,107.8514 500.5428,108.0469 500.6785,108.2422 " fill="none" id="nodeteammates_common_util_Logger_Provider-nodeteammates_ui_servlets_LogoutServlet" style="stroke:#181818;stroke-width:1.0;"/></g><!--link nodeteammates_ui_servlets_HealthCheckServlet to nodeGateway--><g id="link_nodeteammates_ui_servlets_HealthCheckServlet_nodeGateway"><path d="M1017.096,93.4215 C1017.1511,93.2264 1017.2068,93.0313 1017.2629,92.8364 C1017.3752,92.4466 1017.4893,92.0573 1017.6053,91.6685 C1017.8374,90.8911 1018.0771,90.116 1018.3247,89.3437 C1018.8198,87.799 1019.3464,86.2657 1019.9063,84.7478 C1021.0261,81.7118 1022.2789,78.7371 1023.6794,75.8561 C1029.2813,64.3319 1037.245,54.305 1048.5,47.84 C1113.44,10.54 1318.18,15.03 1385.5,47.84 C1399.64,54.7325 1412.2369,64.9831 1423.2231,76.6002 C1428.7163,82.4087 1433.8067,88.5588 1438.4861,94.8015 C1440.8258,97.9229 1443.0627,101.0675 1445.1958,104.204 C1446.2623,105.7723 1447.3029,107.3386 1448.3174,108.899 C1448.8247,109.6792 1449.3254,110.458 1449.8196,111.2348 C1450.0667,111.6232 1450.3121,112.0111 1450.5559,112.3984 C1450.6779,112.5921 1450.7994,112.7856 1450.9205,112.979 " fill="none" id="nodeteammates_ui_servlets_HealthCheckServlet-nodeGateway" style="stroke:#181818;stroke-width:1.0;"/></g><!--link nodeteammates_ui_servlets_LegacyUrlMapper to nodeGateway--><g id="link_nodeteammates_ui_servlets_LegacyUrlMapper_nodeGateway"><path d="M1675.8517,138.1988 C1675.7926,138.0357 1675.7332,137.8722 1675.6734,137.7082 C1675.4344,137.0522 1675.1899,136.3884 1674.9398,135.7173 C1674.4396,134.375 1673.9172,133.0034 1673.3722,131.6063 C1671.192,126.018 1668.6497,120.0222 1665.7213,113.8638 C1654.0075,89.23 1636.115,61.995 1610.5,47.84 C1572.77,26.98 1550.88,26.37 1513.5,47.84 C1502.245,54.305 1494.2813,64.3319 1488.6794,75.8561 C1487.2789,78.7371 1486.0261,81.7118 1484.9063,84.7478 C1484.3464,86.2657 1483.8198,87.799 1483.3247,89.3437 C1483.0771,90.116 1482.8374,90.8911 1482.6053,91.6685 C1482.4893,92.0573 1482.3752,92.4466 1482.2629,92.8364 C1482.2068,93.0313 1482.1511,93.2264 1482.096,93.4215 " fill="none" id="nodeteammates_ui_servlets_LegacyUrlMapper-nodeGateway" style="stroke:#181818;stroke-width:1.0;"/></g><!--link nodeteammates_ui_servlets_LoginServlet to nodeGateway--><g id="link_nodeteammates_ui_servlets_LoginServlet_nodeGateway"><path d="M2154.8598,147.576 C2154.7164,147.2958 2154.5712,147.0129 2154.4242,146.7275 C2149.7197,137.5944 2143.1394,125.8425 2134.8338,113.4725 C2118.2225,88.7325 2094.71,61.52 2065.5,47.84 C2009.96,21.83 1566.68,17.29 1513.5,47.84 C1502.245,54.305 1494.2813,64.3319 1488.6794,75.8561 C1487.2789,78.7371 1486.0261,81.7118 1484.9063,84.7478 C1484.3464,86.2657 1483.8198,87.799 1483.3247,89.3437 C1483.0771,90.116 1482.8374,90.8911 1482.6053,91.6685 C1482.4893,92.0573 1482.3752,92.4466 1482.2629,92.8364 C1482.2068,93.0313 1482.1511,93.2264 1482.096,93.4215 " fill="none" id="nodeteammates_ui_servlets_LoginServlet-nodeGateway" style="stroke:#181818;stroke-width:1.0;"/></g><!--link nodeteammates_ui_servlets_LogoutServlet to nodeGateway--><g id="link_nodeteammates_ui_servlets_LogoutServlet_nodeGateway"><path d="M544.3086,93.7863 C544.3823,93.5912 544.4565,93.3963 544.5311,93.2015 C544.6802,92.8118 544.8312,92.4226 544.9839,92.034 C545.2894,91.2567 545.602,90.4816 545.922,89.7091 C546.562,88.1641 547.2314,86.6297 547.9315,85.1098 C549.3317,82.07 550.8548,79.0884 552.5116,76.1966 C559.1388,64.6294 567.905,54.5 579.5,47.84 C618.33,25.54 1345.25,28.22 1385.5,47.84 C1399.64,54.7325 1412.2369,64.9831 1423.2231,76.6002 C1428.7163,82.4087 1433.8067,88.5588 1438.4861,94.8015 C1440.8258,97.9229 1443.0627,101.0675 1445.1958,104.204 C1446.2623,105.7723 1447.3029,107.3386 1448.3174,108.899 C1448.8247,109.6792 1449.3254,110.458 1449.8196,111.2348 C1450.0667,111.6232 1450.3121,112.0111 1450.5559,112.3984 C1450.6779,112.5921 1450.7994,112.7856 1450.9205,112.979 " fill="none" id="nodeteammates_ui_servlets_LogoutServlet-nodeGateway" style="stroke:#181818;stroke-width:1.0;"/></g><!--link nodeteammates_ui_servlets_OAuth2CallbackServlet to nodeGateway--><g id="link_nodeteammates_ui_servlets_OAuth2CallbackServlet_nodeGateway"><path d="M2595.9954,147.5855 C2595.8542,147.3054 2595.7112,147.0226 2595.5664,146.7373 C2590.9328,137.6078 2584.4456,125.8594 2576.2413,113.4913 C2559.8325,88.755 2536.555,61.54 2507.5,47.84 C2457.55,24.29 1561.39,20.34 1513.5,47.84 C1502.245,54.305 1494.2813,64.3319 1488.6794,75.8561 C1487.2789,78.7371 1486.0261,81.7118 1484.9063,84.7478 C1484.3464,86.2657 1483.8198,87.799 1483.3247,89.3437 C1483.0771,90.116 1482.8374,90.8911 1482.6053,91.6685 C1482.4893,92.0573 1482.3752,92.4466 1482.2629,92.8364 C1482.2068,93.0313 1482.1511,93.2264 1482.096,93.4215 " fill="none" id="nodeteammates_ui_servlets_OAuth2CallbackServlet-nodeGateway" style="stroke:#181818;stroke-width:1.0;"/></g><!--link nodeteammates_ui_servlets_WebApiServlet to nodeGateway--><g id="link_nodeteammates_ui_servlets_WebApiServlet_nodeGateway"><path d="M3117.9083,148.3933 C3117.6161,147.843 3117.3163,147.2819 3117.0089,146.7106 C3112.0903,137.57 3105.2306,125.81 3096.6213,113.435 C3079.4025,88.685 3055.185,61.475 3025.5,47.84 C2949.17,12.78 1586.34,6 1513.5,47.84 C1502.245,54.305 1494.2813,64.3319 1488.6794,75.8561 C1487.2789,78.7371 1486.0261,81.7118 1484.9063,84.7478 C1484.3464,86.2657 1483.8198,87.799 1483.3247,89.3437 C1483.0771,90.116 1482.8374,90.8911 1482.6053,91.6685 C1482.4893,92.0573 1482.3752,92.4466 1482.2629,92.8364 C1482.2068,93.0313 1482.1511,93.2264 1482.096,93.4215 " fill="none" id="nodeteammates_ui_servlets_WebApiServlet-nodeGateway" style="stroke:#181818;stroke-width:1.0;"/></g><!--link nodeteammates_ui_servlets_WebPageServlet to nodeGateway--><g id="link_nodeteammates_ui_servlets_WebPageServlet_nodeGateway"><path d="M3575.8598,147.576 C3575.7164,147.2958 3575.5712,147.0129 3575.4242,146.7275 C3570.7197,137.5944 3564.1394,125.8425 3555.8338,113.4725 C3539.2225,88.7325 3515.71,61.52 3486.5,47.84 C3436.87,24.59 1561.02,20.54 1513.5,47.84 C1502.245,54.305 1494.2813,64.3319 1488.6794,75.8561 C1487.2789,78.7371 1486.0261,81.7118 1484.9063,84.7478 C1484.3464,86.2657 1483.8198,87.799 1483.3247,89.3437 C1483.0771,90.116 1482.8374,90.8911 1482.6053,91.6685 C1482.4893,92.0573 1482.3752,92.4466 1482.2629,92.8364 C1482.2068,93.0313 1482.1511,93.2264 1482.096,93.4215 " fill="none" id="nodeteammates_ui_servlets_WebPageServlet-nodeGateway" style="stroke:#181818;stroke-width:1.0;"/></g><!--SRC=[lPLFJuD04CNlV8fDF6DYqml7ffhQsAOrQ3mGibde22lxX-mkM3H-TsdKjb1jboXUo43Us_abysRH6HKvKOIZHxeUKnKpc948sA84nKYUKv4Wemfmz5OOIvvB0SBufcA02iu6Zf0hG9l7X1Xu9XLwTOBFCaH1O81mNhzgTrVbMfthIXlWPtZuvCs7quli2jmNvjrClBlbP7qRXixRxkIj4zS0N0fS6ChmJ2O9ABnKigGhK9k-LiA_foeerg1A1aRZIoZzkWPLTwN2__ZSP3ifxvVm6WWpwJY5E3k9TwZjbsq62OchUyNcTG3RCpqYx9dAQfJ_Dy6waooC3T1ErY_HObIOT30cZ4N48bRVolibV81ebDEJP0rPxqHBae0Dqfxkbqo1zNqQ8XS5bXaCdQ3BVRCz-ki_SSn-iEbTl8sLx6RSNvqEpX-YtU64LWIxEHj9QLlV0G00]--></g></svg>